<?xml version="1.0" standalone="no"?>
<!DOCTYPE svg PUBLIC "-//W3C//DTD SVG 20010904//EN"
 "http://www.w3.org/TR/2001/REC-SVG-20010904/DTD/svg10.dtd">
<svg version="1.0" xmlns="http://www.w3.org/2000/svg"
 width="675.000000pt" height="675.000000pt" viewBox="0 0 675.000000 675.000000"
 preserveAspectRatio="xMidYMid meet">
<metadata>
Created by potrace 1.14, written by Peter Selinger 2001-2017
</metadata>
<g transform="translate(0.000000,675.000000) scale(0.100000,-0.100000)"
fill="#000000" stroke="none">
<path d="M4514 5819 c-3 -6 -15 -9 -25 -6 -10 3 -19 1 -21 -4 -2 -5 -18 -10
-36 -12 -17 -1 -32 -5 -32 -9 0 -4 -9 -5 -20 -3 -11 2 -18 0 -15 -6 5 -8 -15
-14 -37 -10 -5 0 -8 -4 -8 -11 0 -6 -3 -8 -7 -5 -3 4 -12 2 -20 -4 -7 -6 -13
-9 -13 -5 0 3 -9 -3 -21 -15 -11 -11 -27 -18 -35 -15 -8 3 -14 -1 -14 -11 0
-13 -3 -13 -15 -3 -13 11 -14 10 -8 -5 5 -15 3 -17 -11 -12 -13 5 -19 1 -23
-12 -3 -11 -12 -22 -20 -26 -14 -5 -14 -3 -2 12 13 16 12 17 -3 4 -10 -7 -18
-20 -18 -28 0 -10 -6 -13 -16 -9 -15 6 -15 4 -3 -11 7 -10 9 -15 5 -11 -5 4
-15 3 -23 -4 -11 -9 -12 -7 -7 8 5 18 5 18 -6 1 -6 -9 -16 -14 -22 -11 -8 5
-9 1 -5 -10 4 -9 3 -15 -2 -11 -5 3 -12 -1 -14 -7 -4 -10 -6 -10 -6 0 -1 7 -5
11 -10 7 -5 -3 -12 -1 -16 4 -3 6 3 8 15 6 11 -2 20 0 20 5 0 5 -8 9 -17 9
-10 0 -33 2 -50 4 -32 4 -43 -5 -23 -18 6 -4 19 -1 28 6 9 7 14 9 10 5 -4 -5
-2 -16 4 -25 10 -13 10 -14 -2 -4 -9 8 -19 9 -31 3 -11 -7 -20 -7 -24 0 -3 5
-4 10 0 10 3 0 1 8 -4 18 -7 13 -20 18 -43 17 -18 0 -45 2 -60 6 -20 5 -25 4
-22 -6 3 -7 12 -12 21 -11 9 0 17 -5 19 -12 1 -7 0 -8 -3 -2 -2 5 -9 10 -14
10 -6 0 -7 -6 -3 -12 4 -7 -4 -3 -18 10 -14 12 -41 25 -61 27 -37 5 -42 1 -38
-35 2 -13 1 -13 -8 0 -6 8 -11 10 -11 5 0 -6 -13 -11 -29 -10 -16 0 -27 4 -24
8 3 4 10 6 16 4 14 -5 47 10 47 22 0 4 -7 8 -15 8 -8 0 -15 -4 -15 -9 0 -4 -5
-8 -11 -8 -5 0 -8 4 -5 9 3 5 -1 11 -9 15 -8 3 -17 1 -21 -5 -4 -6 -12 -5 -22
3 -12 10 -14 10 -8 1 8 -15 -3 -17 -23 -4 -9 6 -22 6 -32 0 -12 -6 -19 -5 -22
4 -3 7 -6 4 -6 -6 -1 -17 -2 -17 -17 -2 -16 15 -18 14 -36 -14 -11 -17 -22
-31 -25 -31 -3 0 2 11 11 24 9 14 12 27 7 31 -5 3 -12 -1 -14 -7 -4 -9 -8 -9
-14 -3 -12 15 -43 15 -43 -1 0 -8 6 -11 18 -7 14 5 15 4 4 -8 -11 -12 -16 -10
-32 11 -15 19 -20 21 -20 9 0 -26 -28 -31 -41 -8 -8 16 -14 18 -22 10 -15 -15
-30 -14 -21 2 5 7 1 7 -10 -2 -16 -14 -16 -15 8 -28 14 -8 26 -16 26 -19 0 -2
-13 2 -30 11 -20 11 -28 20 -24 33 5 16 5 16 -8 0 -13 -15 -15 -15 -25 0 -11
16 -12 16 -12 1 -1 -27 -28 -30 -46 -6 -15 21 -15 18 0 -28 3 -11 -1 -8 -10 7
-11 20 -23 27 -40 26 -14 -1 -25 -7 -25 -13 0 -6 -3 -6 -8 1 -11 16 -85 12
-99 -6 -9 -11 -9 -19 0 -30 10 -13 10 -13 -4 -2 -9 7 -25 10 -35 7 -13 -4 -12
-2 3 6 12 6 24 17 26 24 4 9 -24 12 -109 11 -106 -1 -129 -6 -104 -21 14 -8
13 -25 -2 -25 -6 0 -9 3 -5 6 10 10 -20 34 -42 34 -12 0 -21 -6 -21 -12 0 -9
-3 -9 -8 -2 -8 12 -103 14 -96 2 3 -5 0 -8 -5 -8 -6 0 -11 4 -11 9 0 11 -49 9
-67 -2 -6 -4 -14 -1 -17 5 -4 7 -4 3 -2 -8 6 -33 -8 -46 -23 -23 -7 12 -8 18
-2 14 12 -7 15 7 5 18 -10 10 -34 -4 -27 -17 3 -6 1 -6 -8 2 -15 14 -33 16
-25 3 3 -4 -1 -16 -8 -26 -10 -14 -15 -15 -21 -5 -5 9 -4 11 3 6 7 -4 12 -2
12 3 0 6 1 14 3 19 1 4 -19 7 -45 8 -27 0 -48 -4 -48 -8 0 -4 4 -8 8 -8 5 0
16 -6 27 -13 14 -11 15 -16 5 -22 -9 -6 -11 -4 -5 5 6 10 4 12 -9 7 -9 -4 -15
-3 -12 2 10 16 -40 31 -92 28 -33 -1 -57 -8 -62 -17 -8 -12 -10 -11 -10 5 0
17 -2 17 -10 5 -6 -9 -10 -11 -10 -3 0 7 -7 10 -15 7 -15 -6 -22 -25 -7 -22
15 3 42 -15 36 -24 -4 -6 -10 -5 -15 3 -4 8 -13 14 -18 14 -6 0 -17 9 -25 20
-13 17 -15 18 -16 3 0 -21 -16 -32 -26 -17 -4 8 -3 9 4 5 7 -4 12 -3 12 2 0 8
-32 9 -93 3 -5 -1 -5 -7 -1 -13 6 -10 5 -10 -7 -1 -15 12 -97 11 -117 -1 -7
-4 -12 -1 -13 6 0 7 -4 5 -8 -5 -4 -10 -11 -18 -15 -17 -5 1 -12 -3 -15 -8 -4
-6 -11 -4 -19 4 -11 13 -10 14 12 10 14 -3 26 0 26 5 0 5 -18 9 -40 7 -22 -1
-40 -6 -40 -10 0 -4 -5 -8 -11 -8 -5 0 -7 5 -3 12 4 7 3 8 -4 4 -6 -3 -27 -7
-47 -8 -19 -1 -35 -6 -35 -12 0 -6 -5 -4 -10 4 -8 12 -10 12 -10 -5 -1 -19 -1
-19 -11 -2 -7 12 -15 15 -22 9 -7 -4 -31 -8 -54 -8 -22 1 -39 -2 -36 -6 2 -5
0 -8 -6 -8 -5 0 -12 6 -15 13 -4 6 -4 2 -2 -10 2 -13 -3 -28 -13 -35 -14 -11
-14 -11 -4 2 6 9 9 21 5 27 -8 13 -72 12 -72 -1 0 -4 -7 -3 -15 4 -11 9 -15 9
-15 1 0 -7 -10 -10 -24 -7 -31 6 -67 -4 -60 -15 3 -5 0 -9 -5 -9 -6 0 -11 5
-11 10 0 6 -5 10 -11 10 -5 0 -7 -4 -4 -10 3 -5 1 -10 -4 -10 -6 0 -11 5 -11
11 0 5 -5 7 -11 3 -8 -4 -8 -9 0 -17 6 -6 11 -16 11 -21 0 -6 -8 1 -18 16 -12
19 -22 24 -31 18 -8 -4 -23 -7 -33 -5 -19 4 -25 -10 -9 -19 5 -4 11 0 14 6 3
7 5 4 4 -8 -1 -11 -7 -21 -14 -21 -6 0 -10 4 -7 9 3 4 0 8 -5 8 -6 0 -11 8
-11 17 0 13 -3 14 -12 5 -8 -8 -8 -15 2 -27 16 -19 4 -20 -15 -1 -8 7 -11 16
-8 19 3 4 -5 4 -18 2 -13 -3 -44 -8 -69 -11 -49 -5 -76 -10 -130 -19 -19 -4
-40 -7 -47 -7 -7 -1 -11 -4 -9 -7 2 -3 -3 -12 -11 -20 -13 -12 -14 -11 -8 8 4
12 2 21 -4 21 -6 0 -11 -4 -11 -9 0 -6 -10 -10 -22 -10 -50 -1 -58 -3 -64 -13
-5 -7 -2 -8 6 -3 9 6 11 4 5 -5 -6 -10 -4 -12 8 -7 9 3 18 3 21 -1 12 -19 -35
-8 -49 11 -8 12 -15 16 -15 8 0 -7 -6 -11 -14 -8 -8 3 -17 3 -20 -1 -7 -6 -20
-10 -76 -18 -19 -2 -39 -9 -45 -15 -7 -7 -5 -8 6 -4 10 4 19 2 23 -3 3 -5 -5
-7 -17 -6 -12 1 -22 3 -22 4 0 1 -8 3 -18 5 -14 3 -17 -1 -12 -18 6 -20 5 -21
-8 -4 -17 20 -31 23 -24 4 3 -8 -1 -14 -9 -14 -7 0 -11 3 -9 7 2 3 -7 6 -20 6
-16 0 -21 -4 -17 -15 3 -8 1 -12 -4 -8 -6 3 -16 2 -24 -3 -8 -5 -22 -4 -32 1
-13 7 -18 6 -16 -3 2 -9 -10 -13 -36 -14 -24 -1 -44 -7 -51 -18 -9 -11 -22
-15 -40 -12 -15 3 -25 2 -21 -1 3 -4 -6 -15 -21 -25 -24 -15 -28 -24 -28 -67
0 -27 3 -47 7 -45 9 6 21 -34 13 -46 -3 -5 -1 -10 5 -10 12 0 33 -45 35 -75 0
-11 7 -19 13 -17 10 2 10 -3 2 -18 -6 -11 -16 -20 -23 -20 -8 0 -8 -3 1 -9 8
-4 14 -12 15 -17 1 -5 7 -9 14 -9 6 0 15 -4 20 -9 4 -5 3 -6 -4 -2 -8 4 -13 1
-13 -9 0 -9 4 -14 9 -10 5 3 13 0 17 -6 5 -8 3 -9 -6 -4 -10 6 -12 4 -7 -9 4
-10 7 -20 7 -22 0 -2 5 -4 11 -4 5 0 7 5 3 12 -5 7 -3 8 5 3 18 -10 -2 -27
-22 -19 -9 3 -15 9 -13 13 2 3 -2 17 -10 31 -8 16 -13 19 -14 9 0 -8 5 -20 12
-27 7 -7 8 -12 3 -12 -4 0 -1 -8 8 -17 8 -10 16 -22 16 -28 1 -13 34 -13 44 0
5 6 7 4 4 -5 -2 -8 -10 -14 -16 -13 -6 2 -11 -4 -11 -12 0 -18 12 -19 27 -4 7
7 12 6 16 -4 4 -10 -3 -13 -24 -12 -33 2 -34 2 -15 -33 60 -117 74 -150 68
-157 -4 -5 -1 -4 7 0 11 6 13 4 8 -7 -3 -9 3 -24 14 -34 10 -9 19 -25 19 -36
0 -10 5 -18 10 -18 6 0 10 -8 10 -19 0 -10 7 -24 15 -31 8 -7 13 -16 10 -20
-3 -4 2 -11 11 -14 8 -3 13 -10 9 -15 -8 -14 9 -21 25 -10 10 6 11 9 3 9 -7 0
-13 5 -13 10 0 6 7 6 19 -2 18 -11 18 -12 -3 -31 -20 -18 -20 -18 -1 -12 16 5
18 4 8 -6 -18 -18 -16 -34 2 -19 8 7 15 19 15 26 0 8 5 14 10 14 7 0 7 -7 -1
-21 -9 -17 -8 -24 2 -31 11 -7 9 -8 -5 -4 -12 4 -17 2 -13 -6 18 -42 33 -68
40 -68 5 0 5 6 1 13 -5 7 -1 7 12 -3 29 -22 30 -24 12 -17 -12 4 -18 1 -18 -9
0 -11 5 -14 16 -10 13 5 14 3 7 -6 -7 -9 -3 -24 17 -50 15 -21 30 -34 34 -30
4 3 4 -1 0 -11 -4 -11 -1 -17 8 -17 7 0 14 9 15 20 1 11 -4 20 -13 20 -8 0
-14 4 -14 10 0 6 10 5 25 -2 14 -6 21 -16 17 -22 -17 -27 -5 -66 20 -66 6 0 5
7 -2 15 -7 9 -10 18 -6 22 3 3 6 0 6 -8 0 -12 2 -11 11 1 9 13 10 12 5 -2 -3
-11 0 -18 7 -18 7 0 4 -5 -6 -11 -9 -5 -22 -7 -27 -4 -6 3 -10 1 -10 -4 0 -6
4 -11 9 -11 5 0 14 -12 20 -27 15 -35 66 -95 75 -86 3 3 6 -5 6 -18 l1 -24 24
28 c14 15 25 24 25 18 0 -5 -8 -17 -17 -26 -12 -13 -14 -21 -7 -33 14 -22 31
-26 31 -7 0 10 -6 14 -16 10 -11 -4 -10 -1 4 15 23 25 23 25 19 -6 -1 -16 2
-24 9 -21 7 3 11 10 9 16 -1 7 2 10 8 6 6 -3 8 -10 5 -15 -3 -5 5 -16 17 -25
l23 -17 -25 7 c-14 4 -22 4 -18 0 4 -5 3 -14 -3 -22 -14 -16 -5 -17 22 -3 18
10 24 3 20 -23 -1 -4 7 -7 16 -5 14 2 18 -4 19 -27 2 -50 3 -55 20 -55 12 0
14 4 7 13 -5 6 -10 22 -11 33 0 18 6 15 38 -20 31 -33 36 -43 24 -49 -8 -5
-11 -13 -8 -19 4 -7 2 -8 -5 -4 -6 4 -8 12 -5 18 5 7 2 8 -6 3 -10 -6 -9 -12
6 -24 26 -23 62 -66 46 -57 -6 4 -12 2 -12 -3 0 -6 6 -11 13 -11 8 0 8 -3 -2
-9 -8 -5 -11 -16 -8 -25 3 -8 1 -18 -5 -22 -7 -4 -8 -3 -4 4 8 14 -3 15 -23 3
-11 -7 -9 -10 9 -16 18 -6 20 -9 9 -16 -8 -5 -18 -9 -24 -9 -5 0 -3 5 5 10 9
6 10 10 3 10 -16 0 -26 -17 -13 -25 6 -4 8 -10 6 -14 -3 -4 -7 -26 -10 -50 -4
-37 -2 -42 12 -37 14 5 14 4 -1 -8 -13 -10 -20 -31 -22 -73 -2 -32 -4 -58 -5
-58 -2 0 -4 -10 -5 -23 -2 -19 0 -20 13 -10 13 11 14 10 3 -10 -7 -12 -17 -20
-23 -16 -7 4 -8 3 -4 -5 4 -6 13 -8 19 -5 7 4 9 4 5 -1 -4 -4 -3 -17 3 -28 6
-10 7 -17 2 -14 -5 3 -15 2 -23 -4 -12 -7 -10 -9 8 -9 12 0 22 -5 22 -11 0 -6
-9 -8 -21 -4 -16 5 -20 3 -17 -6 3 -8 2 -24 -3 -35 -6 -17 -4 -21 9 -20 9 0
23 8 30 16 10 13 11 12 5 -4 -5 -14 -3 -17 7 -11 9 5 11 4 6 -4 -4 -6 -11 -9
-16 -6 -4 3 -11 -2 -14 -11 -5 -12 -2 -15 9 -10 9 3 13 2 10 -4 -3 -6 -1 -10
4 -10 14 0 14 -27 0 -35 -6 -4 -9 0 -7 10 2 10 -2 20 -7 22 -19 6 -14 -37 6
-47 13 -8 19 -7 19 0 0 6 5 8 11 4 8 -5 8 -8 0 -14 -19 -11 -56 -5 -56 10 0 7
-6 14 -13 16 -7 1 -8 0 -3 -2 5 -3 7 -14 4 -24 -3 -12 0 -20 7 -20 10 0 10 -3
0 -15 -15 -18 -13 -22 14 -27 10 -1 21 3 23 10 3 6 -1 10 -9 9 -7 -2 -10 -2
-5 0 4 3 5 9 1 14 -3 5 0 9 5 9 6 0 11 -6 11 -12 0 -9 4 -8 11 2 8 12 9 10 4
-9 -4 -14 -3 -21 2 -18 5 4 10 0 10 -8 0 -8 -4 -12 -9 -9 -4 3 -8 2 -9 -3 0
-4 -2 -16 -4 -26 -2 -12 1 -17 10 -13 9 3 12 0 8 -9 -3 -8 -9 -13 -13 -10 -5
3 -12 -4 -15 -16 -4 -11 -9 -18 -12 -16 -2 3 0 14 6 26 9 16 8 22 -8 31 -17 9
-19 7 -15 -13 2 -13 5 -39 8 -57 2 -19 9 -36 16 -38 9 -3 10 0 4 9 -6 12 -5
12 10 0 13 -11 20 -11 28 -3 15 15 28 15 28 1 0 -5 -4 -8 -9 -4 -5 3 -12 1
-15 -4 -3 -5 4 -11 16 -14 18 -5 19 -8 8 -21 -17 -21 -27 -20 -47 4 -21 25
-37 26 -25 2 4 -9 8 -24 8 -32 -1 -23 44 -64 57 -51 14 14 37 14 37 1 0 -5 -7
-6 -17 -3 -12 5 -14 3 -8 -8 4 -8 5 -11 0 -7 -4 4 -13 3 -20 -2 -8 -7 -15 -2
-24 16 -19 42 -21 23 -5 -34 17 -56 27 -63 46 -32 7 11 19 20 26 20 7 0 1 -11
-14 -25 -15 -14 -30 -25 -34 -25 -4 0 -2 -16 4 -35 7 -21 16 -33 23 -30 7 2
20 2 29 -2 13 -5 13 -7 2 -14 -19 -13 -36 -11 -18 2 13 9 13 10 0 6 -8 -2 -13
-11 -11 -18 2 -8 4 -20 4 -26 0 -7 4 -13 9 -13 4 0 8 -9 8 -19 0 -11 5 -23 10
-26 6 -3 10 -15 10 -26 0 -11 4 -18 9 -15 5 3 12 -1 15 -10 3 -8 2 -12 -4 -9
-6 3 -7 -1 -4 -10 4 -10 13 -13 24 -10 10 3 21 1 25 -4 3 -6 0 -8 -8 -5 -27
10 -31 -18 -6 -38 13 -11 19 -17 12 -14 -7 4 -9 -1 -6 -15 4 -16 8 -17 14 -7
6 9 9 5 9 -14 0 -15 8 -31 17 -37 10 -5 17 -13 17 -18 -1 -4 2 -18 7 -30 6
-16 14 -21 26 -17 12 4 14 3 6 -3 -23 -16 -2 -58 28 -55 3 1 6 -6 6 -13 0 -9
-5 -12 -12 -7 -6 4 -3 -1 8 -10 10 -10 16 -22 13 -27 -4 -5 1 -16 9 -24 8 -9
15 -21 15 -27 0 -6 5 -8 10 -5 6 3 10 -3 10 -15 0 -11 7 -23 15 -26 8 -4 13
-10 10 -14 -3 -4 2 -13 10 -20 8 -7 15 -18 15 -25 0 -17 35 -47 45 -38 4 5 5
0 2 -9 -8 -21 11 -34 26 -19 6 6 15 11 20 11 5 0 -1 -9 -14 -20 -20 -16 -21
-19 -7 -20 9 0 20 -5 24 -12 5 -7 3 -8 -7 -3 -16 10 2 -11 86 -103 32 -34 64
-62 72 -62 8 0 12 -4 9 -8 -3 -5 9 -19 26 -33 17 -13 46 -38 64 -55 18 -17 36
-29 39 -26 9 10 44 12 49 4 3 -4 0 -14 -6 -22 -8 -12 -9 -12 -5 2 4 12 0 16
-14 15 -10 -1 -19 -4 -19 -7 1 -8 99 -81 104 -78 3 2 12 -6 21 -17 14 -19 16
-19 26 -2 11 19 29 23 29 6 0 -5 -4 -7 -10 -4 -5 3 -10 -3 -10 -13 0 -13 13
-26 35 -36 19 -9 35 -22 35 -28 0 -6 7 -5 18 3 9 7 14 9 10 5 -7 -8 56 -60 64
-55 2 2 22 -10 46 -25 32 -20 47 -24 61 -17 10 6 21 7 25 4 3 -3 6 -1 6 5 0 9
5 9 20 0 11 -7 20 -20 19 -28 0 -10 -2 -11 -6 -2 -2 6 -10 9 -15 6 -7 -4 -8
-2 -4 4 4 7 -1 10 -14 9 -23 -1 -28 -17 -5 -17 8 0 15 -4 15 -8 0 -5 6 -9 13
-9 6 0 24 -4 38 -8 17 -4 30 -2 34 5 5 9 1 10 -13 6 -11 -4 -23 -2 -27 3 -4 7
1 8 11 4 12 -5 15 -3 9 6 -6 10 -3 11 13 2 12 -6 24 -16 28 -23 4 -7 3 -8 -4
-4 -7 4 -12 2 -12 -3 0 -11 6 -12 67 -15 17 0 35 -4 39 -8 4 -4 14 -2 22 5 10
7 13 8 9 1 -4 -8 8 -14 37 -18 23 -4 54 -8 67 -11 13 -2 42 -6 64 -9 22 -3 56
-7 75 -10 19 -3 54 -8 78 -11 82 -10 125 -16 166 -24 24 -4 85 -7 137 -5 566
15 811 24 836 28 12 3 43 8 70 12 26 3 57 8 68 10 11 2 34 7 50 9 223 39 316
55 345 59 138 22 156 28 352 127 112 57 223 119 247 138 49 39 71 47 71 25 0
-8 6 -15 13 -15 27 -3 33 -5 65 -22 31 -17 43 -37 21 -37 -5 0 -7 6 -3 13 4 6
4 9 -1 5 -4 -4 -20 2 -36 12 -17 13 -30 16 -34 10 -3 -5 -4 -11 -1 -11 3 -1
11 -3 16 -4 6 -1 15 -3 21 -4 5 0 7 -7 3 -13 -4 -7 -4 -10 1 -6 4 4 14 3 22
-3 9 -8 17 -8 26 -1 10 9 23 5 53 -15 53 -35 64 -47 37 -39 -12 4 -24 2 -28
-3 -4 -7 1 -8 11 -4 13 5 15 3 9 -8 -7 -10 -1 -9 18 4 23 15 27 15 27 2 0 -8
-4 -15 -10 -15 -5 0 -10 -5 -10 -12 0 -7 7 -5 18 5 25 23 52 6 32 -20 -8 -10
-10 -15 -5 -10 4 4 18 -1 29 -10 15 -14 18 -14 8 -2 -6 9 -8 20 -4 24 4 5 1 5
-7 0 -10 -6 -12 -4 -6 5 7 11 10 10 19 -1 6 -8 18 -15 26 -17 8 -2 19 -10 23
-18 5 -8 12 -12 17 -9 5 3 12 0 16 -6 4 -8 9 -7 16 2 8 11 9 11 5 -1 -2 -8
-10 -14 -16 -13 -19 5 -12 -11 12 -26 21 -13 21 -13 7 4 -14 17 -13 18 3 12
10 -4 21 -7 23 -7 3 0 3 -4 0 -9 -3 -4 4 -17 17 -27 16 -15 19 -15 9 -2 -12
15 -11 17 7 15 11 -1 18 -3 16 -5 -2 -3 0 -13 6 -24 8 -16 13 -17 25 -7 8 6
18 8 22 4 4 -4 1 -10 -6 -12 -6 -3 -9 -9 -6 -15 4 -6 9 -5 14 3 5 7 18 13 29
14 11 1 18 -2 15 -7 -3 -4 0 -8 5 -8 6 0 11 -5 11 -11 0 -8 -4 -8 -14 0 -11 9
-16 9 -22 0 -4 -7 -3 -9 4 -5 5 3 13 0 16 -6 3 -9 10 -7 22 7 16 19 16 19 11
-10 -4 -16 -4 -24 -1 -17 3 6 11 9 16 6 7 -5 8 -2 3 5 -4 8 4 6 18 -4 17 -11
24 -22 20 -33 -4 -13 -2 -12 10 3 14 18 16 18 17 3 0 -11 5 -15 15 -12 17 7
47 -14 39 -27 -3 -5 2 -6 10 -3 9 3 16 1 16 -6 0 -6 5 -8 10 -5 6 3 10 2 10
-4 0 -6 7 -8 15 -5 8 4 15 1 15 -6 0 -7 7 -10 15 -6 8 3 15 1 15 -3 0 -5 8 -8
18 -7 9 2 20 -1 23 -6 3 -5 12 -10 20 -12 8 -1 32 -10 54 -20 22 -10 45 -19
50 -20 6 -2 21 -8 35 -13 14 -6 28 -9 33 -6 4 2 7 -1 7 -7 0 -6 4 -9 9 -6 5 3
14 0 20 -8 6 -7 23 -13 37 -13 15 0 29 -6 33 -12 5 -7 15 -9 26 -5 12 5 16 4
11 -4 -5 -8 7 -14 34 -18 22 -4 40 -11 40 -16 0 -6 11 -8 25 -6 13 3 22 2 20
-3 -3 -4 0 -11 6 -15 6 -3 15 0 20 7 7 12 9 12 9 -1 0 -10 3 -11 11 -3 6 6 18
9 27 6 10 -4 13 -2 8 5 -5 8 -2 10 9 5 13 -4 14 -8 4 -14 -8 -4 -11 -11 -7
-14 3 -3 13 1 22 10 15 15 16 15 16 -3 0 -10 3 -21 6 -24 9 -10 59 9 57 21 -2
6 3 11 10 11 9 0 8 3 -2 9 -9 6 -10 11 -2 15 14 9 14 26 1 26 -5 0 -9 -6 -7
-12 1 -7 -4 -12 -10 -11 -7 2 -13 -2 -13 -7 0 -6 5 -10 12 -10 6 0 8 -3 5 -6
-8 -8 -37 14 -37 28 0 5 4 7 9 4 4 -3 16 3 26 14 10 11 21 17 25 15 5 -3 7 3
5 12 -1 10 2 26 7 37 8 14 7 17 -4 14 -7 -3 -13 -14 -13 -26 0 -11 -3 -23 -7
-27 -4 -4 -6 11 -5 34 1 22 9 46 16 53 9 8 11 9 7 1 -3 -6 -2 -14 4 -18 9 -6
13 8 13 50 0 30 -3 36 -13 30 -6 -4 -7 -13 -1 -24 7 -13 6 -18 -3 -18 -10 0
-14 27 -6 47 1 3 2 9 0 15 -1 5 8 1 20 -10 16 -14 21 -15 18 -5 -2 8 -12 21
-23 28 -19 13 -19 13 3 9 12 -3 22 -1 22 4 0 9 -15 13 -33 10 -5 -1 -6 3 -3 8
3 5 14 7 24 4 15 -3 18 2 17 29 -1 18 2 41 7 51 11 21 2 22 -19 1 -14 -13 -14
-17 -2 -25 9 -6 10 -9 2 -9 -7 0 -17 10 -24 21 -6 12 -7 19 -1 15 20 -12 45
34 49 90 2 30 -1 53 -5 50 -5 -3 -18 1 -28 10 -18 15 -18 15 1 6 38 -18 41
-10 36 96 -1 9 -9 11 -23 8 -21 -5 -20 -4 2 7 14 7 26 18 28 25 1 8 -2 11 -8
7 -5 -3 -10 -1 -10 4 0 6 4 11 8 11 4 0 8 18 8 40 0 25 -3 36 -8 28 -4 -7 -8
-8 -8 -3 0 6 5 16 12 23 9 9 8 12 -5 12 -9 0 -17 -4 -17 -10 0 -5 -5 -10 -10
-10 -6 0 -6 7 2 19 6 10 16 17 22 15 7 -3 11 11 11 33 -1 22 -6 39 -13 39 -7
1 -18 2 -24 3 -7 1 -1 9 15 19 15 10 25 21 21 24 -3 3 -5 24 -6 47 0 23 -4 38
-10 35 -5 -3 -4 3 4 15 10 17 10 23 -1 33 -11 11 -12 9 -6 -12 7 -24 7 -24 -8
-5 -14 18 -14 21 1 30 25 15 25 33 -1 46 -12 7 -23 12 -24 11 -11 -8 -13 1 -3
13 6 8 9 18 6 23 -3 5 0 17 7 26 10 14 12 12 12 -14 1 -16 -4 -30 -9 -30 -6 0
-5 -5 1 -11 15 -15 37 -1 25 14 -5 7 -9 31 -8 54 1 22 -2 39 -6 36 -5 -2 -8 1
-8 7 0 6 -3 9 -8 6 -10 -6 -9 115 1 132 5 7 3 12 -7 12 -9 0 -16 8 -16 18 0
14 2 15 10 2 5 -8 12 -12 15 -8 3 3 -1 13 -10 21 -17 17 -20 32 -5 22 6 -3 10
-1 10 4 0 6 -4 11 -9 11 -14 0 -21 29 -9 36 6 4 8 3 4 -4 -3 -6 -2 -13 2 -16
5 -3 8 7 6 22 -1 15 -3 27 -4 27 -2 0 -3 13 -4 28 -1 16 -8 32 -16 37 -13 8
-13 13 -2 31 8 11 9 18 4 15 -13 -8 -23 19 -11 31 11 11 1 43 -13 43 -6 0 -4
8 3 17 8 9 9 14 3 10 -7 -4 -14 3 -16 18 -5 22 -3 24 11 13 14 -11 14 -11 4 3
-7 9 -10 19 -6 23 4 4 0 4 -8 1 -10 -4 -16 0 -16 9 0 8 4 13 9 10 4 -3 8 2 8
11 0 10 -5 13 -12 9 -10 -6 -10 -4 0 8 10 13 10 18 1 24 -8 5 -9 3 -4 -6 5 -9
4 -11 -3 -6 -9 5 -9 13 -1 28 9 16 8 19 -2 13 -9 -6 -10 -3 -5 10 4 10 3 21
-2 24 -14 9 -27 55 -13 47 14 -9 2 26 -12 36 -6 3 -11 19 -13 34 -2 22 -1 25
6 14 8 -12 9 -10 7 7 -2 12 -7 26 -12 30 -4 5 -5 2 0 -6 6 -10 4 -12 -4 -7 -7
5 -9 16 -5 28 5 16 3 19 -7 12 -10 -6 -10 -3 1 11 8 10 10 16 4 12 -7 -4 -15
0 -18 9 -11 29 -6 38 10 18 15 -18 15 -18 4 3 -5 12 -15 25 -21 28 -7 5 -6 12
3 22 10 12 9 17 -2 27 -20 15 -24 37 -8 47 9 6 8 9 -6 9 -11 0 -16 3 -13 7 4
3 1 13 -6 21 -9 13 -9 14 0 8 9 -5 11 -2 7 8 -3 9 -10 16 -15 16 -5 0 -9 8 -9
18 0 15 2 15 11 2 9 -12 10 -12 5 3 -3 10 -6 21 -6 23 0 3 -4 3 -9 -1 -12 -7
-25 31 -16 45 3 5 1 10 -4 10 -6 0 -11 5 -11 11 0 5 4 7 10 4 6 -3 7 1 4 9 -3
9 -11 13 -18 9 -6 -4 -4 2 4 12 8 10 10 16 4 12 -7 -4 -15 0 -18 9 -9 23 -8
26 7 19 6 -4 3 1 -7 9 -15 12 -16 16 -5 16 12 0 12 2 0 9 -8 5 -10 14 -6 21 6
9 4 11 -4 5 -9 -5 -12 -1 -9 12 2 11 -3 27 -9 35 -7 8 -14 27 -15 42 -1 14 -6
26 -10 26 -4 0 -8 12 -8 26 0 15 -8 33 -17 41 -11 8 -12 11 -3 7 12 -7 13 -5
3 8 -7 8 -10 18 -6 21 3 4 1 7 -5 7 -7 0 -11 3 -10 8 3 14 -28 72 -36 65 -4
-4 -4 0 0 10 3 10 -2 29 -12 45 -10 15 -17 30 -16 35 1 4 -2 7 -8 7 -5 0 -10
6 -10 14 0 8 -5 16 -12 18 -10 4 -17 23 -20 55 -1 7 -7 14 -15 17 -7 3 -13 12
-13 21 0 8 -4 15 -10 15 -5 0 -10 7 -10 15 0 8 -6 15 -12 15 -9 0 -8 4 2 10
13 8 12 10 -3 10 -10 0 -15 5 -12 10 3 6 2 10 -2 10 -5 0 -14 10 -22 23 -13
21 -13 21 6 7 10 -8 8 -5 -5 8 -13 12 -20 22 -17 22 4 0 -1 7 -9 16 -9 8 -14
19 -11 24 3 4 -2 10 -10 14 -9 3 -12 12 -8 22 5 13 3 15 -7 9 -10 -6 -12 -4
-7 8 4 12 2 14 -10 10 -11 -4 -14 -3 -9 5 4 7 0 15 -9 18 -13 6 -14 8 -3 15
10 7 9 9 -5 9 -10 0 -15 5 -12 10 3 6 3 10 -2 10 -4 0 -14 14 -21 30 -8 17
-18 28 -23 24 -5 -3 -9 2 -9 10 0 9 -4 16 -8 16 -5 0 -14 12 -20 26 -7 14 -8
23 -2 19 5 -3 10 1 10 10 0 9 -4 13 -10 10 -6 -4 -7 1 -3 11 5 13 3 15 -7 9
-9 -6 -11 -4 -5 5 6 10 4 12 -10 6 -15 -5 -16 -4 -5 9 10 12 15 13 20 4 4 -6
10 -7 12 -3 3 5 4 4 2 -3 -1 -6 3 -18 9 -27 10 -13 15 -13 30 -1 13 9 15 15 6
20 -6 4 -15 1 -20 -6 -6 -10 -8 -7 -6 9 1 13 10 31 21 40 12 11 16 12 11 3 -6
-11 -4 -13 9 -8 11 4 15 3 11 -4 -4 -6 -13 -8 -21 -5 -7 3 -16 1 -19 -3 -4 -8
24 -25 30 -19 12 12 54 98 49 98 -4 0 -2 6 4 13 15 17 25 64 25 112 0 49 -5
68 -22 89 -12 14 -11 16 5 10 11 -4 2 8 -19 28 -32 30 -35 36 -21 42 14 5 15
9 5 19 -9 9 -14 9 -21 -3 -5 -8 -10 -10 -10 -4 0 5 6 16 13 23 10 10 8 11 -6
5 -10 -3 -17 -3 -16 2 4 23 -2 45 -11 39 -5 -3 -10 -1 -10 5 0 6 -5 8 -11 5
-6 -4 -9 -1 -7 6 2 13 -15 38 -54 81 -10 10 -16 18 -13 18 3 0 -7 13 -21 30
-15 16 -31 27 -36 23 -6 -3 -5 -9 3 -14 10 -6 7 -8 -8 -6 -20 1 -21 3 -8 17
19 21 19 34 1 27 -11 -4 -13 -1 -9 10 4 11 2 14 -5 9 -7 -4 -12 -1 -12 7 0 17
-44 59 -53 50 -4 -3 -7 2 -7 13 0 16 -2 17 -10 4 -8 -12 -10 -9 -10 13 0 15
-4 27 -10 27 -5 0 -19 9 -30 20 -12 12 -26 18 -32 14 -7 -4 -8 -3 -4 5 10 15
-21 44 -40 37 -8 -3 -12 -10 -9 -16 10 -16 -1 -11 -16 7 -8 10 -9 14 -2 10 18
-11 26 11 9 28 -11 11 -16 12 -19 2 -4 -9 -6 -9 -6 1 -1 16 -28 44 -66 68 -16
10 -36 27 -43 36 -7 10 -20 18 -28 18 -8 0 -14 4 -14 10 0 5 -7 6 -17 3 -12
-5 -14 -3 -8 7 6 10 4 12 -8 7 -10 -4 -14 -2 -11 6 2 7 -5 18 -16 25 -17 10
-21 10 -26 -2 -3 -8 -13 -17 -22 -21 -13 -5 -13 -3 2 14 20 22 13 46 -11 37
-8 -3 -12 -2 -9 3 3 5 -1 14 -9 21 -8 7 -15 9 -15 4 0 -5 -7 2 -16 14 -8 12
-20 22 -26 22 -7 0 -3 -7 8 -15 10 -8 16 -15 12 -15 -4 0 -23 16 -44 35 -20
19 -43 35 -51 35 -8 0 -11 5 -7 12 4 6 3 8 -4 4 -5 -3 -13 0 -16 6 -3 7 -4 2
-1 -12 5 -24 4 -24 -8 3 -7 15 -16 24 -20 21 -4 -4 -7 -2 -7 5 0 7 -4 9 -10 6
-5 -3 -10 -2 -10 4 0 5 -12 16 -27 23 -16 8 -40 22 -55 32 -20 13 -28 14 -34
5 -5 -8 -3 -10 7 -4 12 8 12 6 0 -8 -16 -20 -22 -22 -18 -5 1 7 -2 13 -8 13
-26 3 -65 30 -65 44 0 13 -2 13 -9 2 -7 -10 -10 -10 -13 -1 -2 7 -13 13 -23
14 -27 2 -95 36 -95 48 0 5 -4 6 -10 3 -5 -3 -10 -1 -10 4 0 6 -3 10 -7 9 -5
-1 -27 8 -50 20 -49 25 -50 26 -59 11z m401 -169 c3 -5 1 -10 -5 -10 -6 0 -8
-6 -4 -12 4 -7 3 -9 -1 -5 -12 10 -15 37 -5 37 5 0 12 -4 15 -10z m-1302 -35
c-3 -9 -8 -14 -10 -11 -3 3 -2 9 2 15 9 16 15 13 8 -4z m-749 -34 c-5 -6 -34
20 -34 30 0 5 8 1 18 -8 10 -10 17 -20 16 -22z m39 27 c-2 -5 -13 -8 -23 -8
-10 0 -21 3 -23 8 -3 4 8 7 23 7 15 0 26 -3 23 -7z m122 2 c-3 -5 -14 -10 -23
-9 -14 0 -13 2 3 9 27 11 27 11 20 0z m62 3 c-4 -3 1 -12 11 -20 15 -11 13
-12 -11 -1 -20 8 -24 14 -15 20 16 9 24 10 15 1z m203 -28 c0 -5 -5 -3 -10 5
-5 8 -10 20 -10 25 0 6 5 3 10 -5 5 -8 10 -19 10 -25z m180 25 c0 -5 -2 -10
-4 -10 -3 0 -8 5 -11 10 -3 6 -1 10 4 10 6 0 11 -4 11 -10z m80 -1 c0 -5 4 -7
10 -4 6 3 7 -1 4 -10 -4 -9 -7 -15 -8 -13 -1 2 -8 11 -15 21 -9 11 -10 17 -2
17 6 0 11 -5 11 -11z m197 -15 c1 -14 0 -14 -3 -3 -3 11 -12 15 -25 12 -10 -3
-19 -1 -19 4 0 19 45 7 47 -13z m1230 9 c0 -9 -4 -10 -10 -4 -7 7 -15 7 -24
-1 -10 -8 -12 -7 -7 5 7 19 41 19 41 0z m-2457 -1 c0 -5 -6 -16 -13 -27 -11
-14 -16 -15 -22 -5 -6 9 -4 11 5 5 10 -6 12 -4 7 9 -4 10 -3 15 3 11 6 -3 10
-1 10 4 0 6 2 11 5 11 3 0 5 -4 5 -8z m107 -24 c-3 -7 -5 -2 -5 12 0 14 2 19
5 13 2 -7 2 -19 0 -25z m190 0 c-3 -7 -5 -2 -5 12 0 14 2 19 5 13 2 -7 2 -19
0 -25z m156 11 c-8 -8 -13 -7 -18 2 -5 8 -4 10 3 5 7 -4 12 -2 12 5 0 7 3 9 7
6 4 -4 2 -12 -4 -18z m437 17 c0 -2 -8 -10 -17 -17 -16 -13 -17 -12 -4 4 13
16 21 21 21 13z m120 -19 c0 -7 -4 -6 -10 3 -7 11 -10 11 -10 2 0 -7 -5 -10
-11 -6 -8 4 -7 9 2 15 15 9 29 3 29 -14z m51 0 c-10 -9 -11 -8 -5 6 3 10 9 15
12 12 3 -3 0 -11 -7 -18z m292 15 c3 8 6 8 6 2 1 -6 -7 -18 -16 -25 -10 -7
-15 -9 -11 -5 4 5 2 16 -5 25 -10 14 -10 14 5 3 13 -10 17 -10 21 0z m-1533
-6 c0 -2 -7 -7 -16 -10 -8 -3 -12 -2 -9 4 6 10 25 14 25 6z m259 -10 c9 -11 9
-16 0 -22 -7 -4 -9 -3 -5 4 3 6 -2 15 -11 21 -10 6 -13 11 -7 11 6 0 17 -6 23
-14z m79 7 c-10 -2 -18 -9 -18 -15 0 -6 -3 -9 -6 -5 -10 10 6 27 24 26 15 -1
15 -2 0 -6z m372 3 c0 -2 -7 -7 -16 -10 -8 -3 -12 -2 -9 4 6 10 25 14 25 6z
m140 -6 c0 -5 -2 -10 -4 -10 -3 0 -8 5 -11 10 -3 6 -1 10 4 10 6 0 11 -4 11
-10z m160 0 c0 -5 -2 -10 -4 -10 -3 0 -8 5 -11 10 -3 6 -1 10 4 10 6 0 11 -4
11 -10z m541 -13 c-10 -9 -11 -8 -5 6 3 10 9 15 12 12 3 -3 0 -11 -7 -18z
m-1747 2 c-4 -7 0 -9 14 -5 11 4 23 2 26 -3 5 -8 -33 -9 -52 -2 -5 2 8 21 14
21 3 0 2 -5 -2 -11z m73 5 c-3 -3 -12 -4 -19 -1 -8 3 -5 6 6 6 11 1 17 -2 13
-5z m353 -4 c8 -5 11 -10 5 -10 -5 0 -17 5 -25 10 -8 5 -10 10 -5 10 6 0 17
-5 25 -10z m210 6 c0 -2 -9 -6 -20 -9 -11 -3 -18 -1 -14 4 5 9 34 13 34 5z
m2211 -19 c-10 -9 -11 -8 -5 6 3 10 9 15 12 12 3 -3 0 -11 -7 -18z m-2738 -1
c4 -10 1 -13 -9 -9 -15 6 -19 23 -5 23 5 0 11 -7 14 -14z m148 -9 c-10 -9 -11
-8 -5 6 3 10 9 15 12 12 3 -3 0 -11 -7 -18z m69 13 c0 -5 -5 -10 -11 -10 -5 0
-7 5 -4 10 3 6 8 10 11 10 2 0 4 -4 4 -10z m227 4 c-3 -3 -12 -4 -19 -1 -8 3
-5 6 6 6 11 1 17 -2 13 -5z m1667 -3 c3 -5 -1 -11 -9 -14 -9 -4 -12 -1 -8 9 6
16 10 17 17 5z m606 5 c0 -3 -4 -8 -10 -11 -5 -3 -10 -1 -10 4 0 6 5 11 10 11
6 0 10 -2 10 -4z m-3059 -22 c12 -14 14 -14 26 2 11 15 13 15 13 2 0 -24 -23
-28 -49 -7 -13 11 -19 19 -13 19 5 0 15 -7 23 -16z m2489 6 c-35 -24 -54 -31
-30 -11 14 11 30 21 35 21 6 0 3 -5 -5 -10z m-2570 -11 c0 -5 -4 -7 -10 -4 -5
3 -10 1 -10 -6 0 -7 -3 -10 -6 -6 -8 7 4 27 17 27 5 0 9 -5 9 -11z m40 7 c0
-2 -7 -7 -16 -10 -8 -3 -12 -2 -9 4 6 10 25 14 25 6z m134 -4 c3 -5 -1 -9 -9
-9 -8 0 -15 4 -15 9 0 4 4 8 9 8 6 0 12 -4 15 -8z m50 0 c3 -5 -1 -9 -9 -9 -8
0 -15 4 -15 9 0 4 4 8 9 8 6 0 12 -4 15 -8z m166 4 c0 -2 -7 -7 -16 -10 -8 -3
-12 -2 -9 4 6 10 25 14 25 6z m2215 -6 c3 -5 1 -10 -4 -10 -6 0 -11 5 -11 10
0 6 2 10 4 10 3 0 8 -4 11 -10z m-2760 -18 c-3 -3 -11 0 -18 7 -9 10 -8 11 6
5 10 -3 15 -9 12 -12z m44 -3 c-15 -9 -32 -2 -24 11 3 5 13 6 21 3 12 -4 13
-8 3 -14z m2546 11 c-3 -5 -12 -10 -18 -10 -7 0 -6 4 3 10 19 12 23 12 15 0z
m798 -5 c-3 -9 -8 -14 -10 -11 -3 3 -2 9 2 15 9 16 15 13 8 -4z m-3533 -27 c0
-4 -8 -6 -19 -5 -15 1 -17 4 -8 19 8 13 13 14 19 5 4 -7 8 -15 8 -19z m20 22
c0 -5 -2 -10 -4 -10 -3 0 -8 5 -11 10 -3 6 -1 10 4 10 6 0 11 -4 11 -10z m76
-2 c5 -8 2 -9 -10 -5 -10 4 -19 1 -22 -8 -4 -8 -10 -12 -16 -9 -5 3 -1 12 9
20 22 17 30 17 39 2z m164 2 c0 -5 -5 -10 -11 -10 -5 0 -7 5 -4 10 3 6 8 10
11 10 2 0 4 -4 4 -10z m103 3 c-7 -2 -19 -2 -25 0 -7 3 -2 5 12 5 14 0 19 -2
13 -5z m2411 -2 c3 -5 -1 -11 -9 -15 -15 -6 -29 7 -18 18 9 9 21 8 27 -3z
m106 -1 c0 -5 -2 -10 -4 -10 -3 0 -8 5 -11 10 -3 6 -1 10 4 10 6 0 11 -4 11
-10z m680 0 c0 -5 -5 -10 -11 -10 -5 0 -7 5 -4 10 3 6 8 10 11 10 2 0 4 -4 4
-10z m-3728 -17 c-6 -3 -10 -9 -7 -14 4 -5 -1 -6 -10 -3 -14 6 -14 8 2 19 10
8 20 11 23 8 3 -3 -1 -8 -8 -10z m32 -7 c-3 -9 -10 -16 -15 -16 -5 0 -4 9 3
20 14 22 21 20 12 -4z m3707 1 c-10 -9 -11 -8 -5 6 3 10 9 15 12 12 3 -3 0
-11 -7 -18z m-3841 3 c0 -5 -5 -10 -11 -10 -5 0 -7 5 -4 10 3 6 8 10 11 10 2
0 4 -4 4 -10z m21 -17 c-12 -20 -14 -14 -5 12 4 9 9 14 11 11 3 -2 0 -13 -6
-23z m189 17 c0 -5 -4 -10 -10 -10 -5 0 -10 5 -10 10 0 6 5 10 10 10 6 0 10
-4 10 -10z m2917 -12 c-3 -8 -6 -5 -6 6 -1 11 2 17 5 13 3 -3 4 -12 1 -19z
m163 12 c0 -5 -2 -10 -4 -10 -3 0 -8 5 -11 10 -3 6 -1 10 4 10 6 0 11 -4 11
-10z m-3236 -15 c-4 -8 -11 -15 -16 -15 -6 0 -5 6 2 15 7 8 14 15 16 15 2 0 1
-7 -2 -15z m3729 0 c-3 -9 -8 -14 -10 -11 -3 3 -2 9 2 15 9 16 15 13 8 -4z
m-3893 1 c0 -2 -7 -9 -15 -16 -13 -11 -14 -10 -9 4 5 14 24 23 24 12z m3980
-6 c0 -5 -2 -10 -4 -10 -3 0 -8 5 -11 10 -3 6 -1 10 4 10 6 0 11 -4 11 -10z
m-3900 -14 c-4 -4 -16 -4 -26 2 -16 9 -14 10 8 9 15 -1 23 -6 18 -11z m-289
-11 c5 4 6 -1 2 -10 -5 -13 -7 -14 -14 -3 -5 7 -8 18 -8 23 0 6 3 4 6 -3 2 -6
9 -10 14 -7z m44 5 c-3 -5 -11 -10 -16 -10 -6 0 -7 5 -4 10 3 6 11 10 16 10 6
0 7 -4 4 -10z m33 -2 c-2 -6 -10 -13 -16 -14 -7 -1 -8 0 -2 3 5 2 8 9 4 14 -3
5 0 9 6 9 7 0 10 -5 8 -12z m4149 -10 c-3 -8 -6 -5 -6 6 -1 11 2 17 5 13 3 -3
4 -12 1 -19z m-4264 3 c4 -1 7 -6 7 -12 0 -8 -6 -7 -17 2 -15 12 -16 12 -10
-3 9 -24 0 -23 -13 1 -8 16 -7 19 8 16 9 -2 20 -4 25 -4z m4288 -14 c-10 -9
-11 -8 -5 6 3 10 9 15 12 12 3 -3 0 -11 -7 -18z m-4373 -7 c-7 -11 -15 -15
-17 -9 -2 8 -7 7 -13 -2 -8 -11 -9 -11 -5 1 2 8 10 14 16 13 6 -2 11 2 11 7 0
6 5 10 10 10 6 0 5 -8 -2 -20z m35 7 c3 -8 -1 -14 -8 -14 -7 0 -11 6 -8 14 3
7 6 13 8 13 2 0 5 -6 8 -13z m3827 7 c0 -8 -19 -13 -24 -6 -3 5 1 9 9 9 8 0
15 -2 15 -3z m430 -16 c0 -6 -6 -5 -15 2 -8 7 -15 14 -15 16 0 2 7 1 15 -2 8
-4 15 -11 15 -16z m-4406 -10 c-5 -8 -2 -9 9 -5 10 3 17 2 17 -3 0 -12 -27
-13 -34 -1 -3 4 -3 11 1 15 10 10 15 7 7 -6z m4439 -3 c-3 -9 -8 -14 -10 -11
-3 3 -2 9 2 15 9 16 15 13 8 -4z m-4546 -20 c0 -8 -4 -12 -9 -9 -5 3 -6 10 -3
15 9 13 12 11 12 -6z m4580 -1 c0 -7 -6 -10 -14 -7 -7 3 -13 8 -13 12 0 4 6 8
13 8 8 0 14 -6 14 -13z m-4607 -3 c0 -5 -7 -12 -16 -15 -14 -5 -15 -4 -4 9 14
17 20 19 20 6z m60 -1 c0 -5 -2 -10 -4 -10 -3 0 -8 5 -11 10 -3 6 -1 10 4 10
6 0 11 -4 11 -10z m4576 -15 c0 -28 -8 -24 -13 5 -2 11 1 20 5 20 4 0 8 -11 8
-25z m-4676 5 c0 -5 -4 -10 -10 -10 -5 0 -10 5 -10 10 0 6 5 10 10 10 6 0 10
-4 10 -10z m4708 -41 c-3 -8 -7 -3 -11 10 -4 17 -3 21 5 13 5 -5 8 -16 6 -23z
m77 5 c9 -15 12 -23 6 -20 -11 7 -35 46 -28 46 3 0 12 -12 22 -26z m50 -5 c11
-16 1 -19 -13 -3 -7 8 -8 14 -3 14 5 0 13 -5 16 -11z m87 -66 c-6 -2 -9 -10
-5 -16 3 -7 3 -9 -2 -5 -4 4 -15 2 -23 -5 -13 -11 -14 -9 -1 11 8 12 21 22 29
21 10 0 11 -2 2 -6z m28 -43 c7 -14 7 -20 0 -20 -5 0 -10 7 -10 16 0 9 -5 12
-12 8 -7 -4 -8 -3 -4 4 10 16 14 15 26 -8z m67 -52 c-3 -8 -6 -5 -6 6 -1 11 2
17 5 13 3 -3 4 -12 1 -19z m63 -40 c0 -11 -12 -10 -30 2 -12 7 -10 9 8 7 12 0
22 -5 22 -9z m17 -33 c0 -8 -4 -12 -9 -9 -5 3 -6 10 -3 15 9 13 12 11 12 -6z
m-497 -10 c11 -13 10 -14 -4 -9 -9 3 -16 10 -16 15 0 13 6 11 20 -6z m575 -55
c-3 -5 -1 -10 6 -10 7 0 10 -3 6 -6 -9 -9 -28 6 -22 17 4 5 8 9 11 9 3 0 2 -4
-1 -10z m-435 -62 c0 -13 -5 -9 -31 19 l-24 26 27 -19 c15 -10 28 -22 28 -26z
m464 6 c3 -8 2 -12 -4 -9 -6 3 -10 10 -10 16 0 14 7 11 14 -7z m-5584 -34
c-12 -22 -21 -26 -17 -7 2 10 17 26 25 27 1 0 -2 -9 -8 -20z m5645 -10 c-3 -5
-12 -10 -18 -10 -7 0 -6 4 3 10 19 12 23 12 15 0z m-2375 -85 c-7 -8 -17 -15
-23 -15 -6 0 -2 7 9 15 25 19 30 19 14 0z m1975 -5 c10 -11 16 -20 13 -20 -3
0 -13 9 -23 20 -10 11 -16 20 -13 20 3 0 13 -9 23 -20z m-5185 -15 c0 -2 -10
-9 -22 -15 -22 -11 -22 -10 -4 4 21 17 26 19 26 11z m20 -89 c0 -2 -7 -7 -16
-10 -8 -3 -12 -2 -9 4 6 10 25 14 25 6z m20 -16 c0 -5 -8 -10 -17 -10 -15 0
-16 2 -3 10 19 12 20 12 20 0z m5275 -20 c10 -11 16 -20 13 -20 -3 0 -13 9
-23 20 -10 11 -16 20 -13 20 3 0 13 -9 23 -20z m-5272 -20 c4 0 5 6 1 13 -4 6
-4 9 0 5 4 -3 6 -8 4 -11 -1 -3 6 -15 17 -28 13 -15 14 -19 3 -11 -14 11 -18
10 -27 -5 -6 -10 -11 -13 -11 -7 0 5 6 16 13 23 10 11 9 13 -6 8 -11 -4 -16
-3 -12 3 3 6 1 10 -4 10 -6 0 -11 5 -11 12 0 9 3 9 12 0 7 -7 16 -12 21 -12z
m42 -57 c9 4 14 3 11 -2 -3 -5 -14 -11 -24 -13 -13 -4 -18 1 -20 16 -1 15 1
17 7 7 5 -8 16 -11 26 -8z m0 -33 c-3 -5 -12 -10 -18 -10 -7 0 -6 4 3 10 19
12 23 12 15 0z m22 -5 c-4 -8 -2 -17 3 -20 6 -4 10 -11 10 -18 0 -6 -6 -2 -14
8 -12 17 -12 45 1 45 3 0 3 -7 0 -15z m2533 11 c0 -2 -7 -7 -16 -10 -8 -3 -12
-2 -9 4 6 10 25 14 25 6z m-2510 -76 c6 0 10 -5 10 -11 0 -6 -13 -1 -30 11
-16 12 -30 26 -30 33 0 6 9 1 20 -11 12 -12 25 -22 30 -22z m1045 21 c3 -5 2
-12 -3 -15 -5 -3 -9 1 -9 9 0 17 3 19 12 6z m1360 -11 c3 -5 1 -10 -4 -10 -6
0 -11 5 -11 10 0 6 2 10 4 10 3 0 8 -4 11 -10z m-1350 -20 c-3 -5 -12 -10 -18
-10 -7 0 -6 4 3 10 19 12 23 12 15 0z m-1060 -20 c3 -5 1 -10 -4 -10 -6 0 -11
5 -11 10 0 6 2 10 4 10 3 0 8 -4 11 -10z m32 -2 c0 -7 4 -22 7 -33 5 -13 2
-11 -7 5 -9 14 -13 28 -11 32 7 11 11 10 11 -4z m2323 8 c0 -3 -4 -8 -10 -11
-5 -3 -10 -1 -10 4 0 6 5 11 10 11 6 0 10 -2 10 -4z m-35 -24 c-3 -3 -11 0
-18 7 -9 10 -8 11 6 5 10 -3 15 -9 12 -12z m3312 -12 c-12 -18 -15 -19 -21 -5
-3 9 -2 13 4 10 6 -3 13 1 16 10 4 9 9 14 11 11 3 -3 -2 -14 -10 -26z m31 0
c-7 -11 -16 -20 -20 -20 -5 0 -3 9 4 20 7 11 16 20 20 20 5 0 3 -9 -4 -20z
m-5651 -12 c-3 -8 -6 -5 -6 6 -1 11 2 17 5 13 3 -3 4 -12 1 -19z m33 -28 c8
-5 11 -12 8 -16 -4 -3 -14 1 -23 10 -18 17 -9 21 15 6z m5593 -24 c-10 -11
-19 -23 -21 -26 -2 -3 -2 4 0 15 2 12 -2 19 -9 18 -7 -2 -13 2 -13 7 0 14 13
13 29 -2 11 -11 13 -10 8 4 -4 12 -2 15 9 11 13 -5 12 -8 -3 -27z m-5543 -6
c0 -5 -2 -10 -4 -10 -3 0 -8 5 -11 10 -3 6 -1 10 4 10 6 0 11 -4 11 -10z
m5354 -26 c3 -8 2 -12 -4 -9 -6 3 -10 10 -10 16 0 14 7 11 14 -7z m-5304 -75
c15 -28 5 -23 -15 7 -9 15 -12 23 -6 20 6 -4 16 -16 21 -27z m-10 -24 c7 -9
15 -13 18 -11 9 9 40 -38 34 -53 -3 -9 -1 -12 6 -7 7 4 12 2 12 -4 0 -7 -6
-10 -12 -7 -7 2 -12 12 -12 21 1 10 -15 28 -37 43 -21 14 -39 27 -39 29 0 10
19 2 30 -11z m50 -95 c8 -5 11 -10 5 -10 -5 0 -17 5 -25 10 -8 5 -10 10 -5 10
6 0 17 -5 25 -10z m45 -20 c3 -6 -1 -7 -9 -4 -18 7 -21 14 -7 14 6 0 13 -4 16
-10z m69 -134 c-10 -8 -21 -12 -24 -10 -5 6 21 24 34 24 6 0 1 -6 -10 -14z
m14 -22 c-1 -5 -9 -9 -16 -10 -10 -2 -11 1 -1 12 12 14 24 13 17 -2z m25 -15
c-13 -13 -6 -39 9 -39 6 0 7 7 4 16 -3 9 -2 12 5 9 6 -4 8 -13 5 -21 -3 -7 2
-17 11 -22 9 -6 12 -12 5 -16 -5 -3 -13 1 -16 10 -3 8 -10 13 -15 9 -5 -3 -12
4 -16 15 -4 11 -10 18 -15 15 -5 -3 -12 0 -16 6 -4 8 -3 9 4 5 6 -4 17 2 24
13 7 11 14 18 17 15 3 -2 0 -9 -6 -15z m337 -265 c0 -8 -19 -13 -24 -6 -3 5 1
9 9 9 8 0 15 -2 15 -3z m-66 -269 c-4 -8 -8 -15 -10 -15 -2 0 -4 7 -4 15 0 8
4 15 10 15 5 0 7 -7 4 -15z m-9 -55 c3 -6 -1 -7 -9 -4 -18 7 -21 14 -7 14 6 0
13 -4 16 -10z m-10 -229 c3 -5 2 -12 -3 -15 -5 -3 -9 1 -9 9 0 17 3 19 12 6z
m-5 -98 c-8 -3 -22 -11 -30 -17 -13 -10 -13 -9 -1 7 7 9 21 17 30 16 13 0 14
-1 1 -6z m47 -239 c-3 -3 -12 -4 -19 -1 -8 3 -5 6 6 6 11 1 17 -2 13 -5z m0
-39 c0 -8 -4 -15 -9 -15 -10 0 -11 14 -1 23 9 10 10 9 10 -8z m-37 -35 c-6
-11 -13 -20 -16 -20 -2 0 0 9 6 20 6 11 13 20 16 20 2 0 0 -9 -6 -20z m34 -6
c3 -8 2 -12 -4 -9 -6 3 -10 1 -10 -4 0 -6 -5 -11 -10 -11 -6 0 -5 8 2 20 15
24 14 24 22 4z m19 -111 c-9 -16 -18 -29 -18 -30 -1 -2 -12 8 -25 22 -26 27
-21 35 5 9 15 -15 17 -15 31 5 22 31 27 26 7 -6z m-5 -92 c-12 -19 -28 -19
-28 0 0 6 5 7 10 4 6 -3 10 -1 10 4 0 6 5 11 10 11 6 0 5 -8 -2 -19z m2727 9
c-3 -5 -12 -10 -18 -10 -7 0 -6 4 3 10 19 12 23 12 15 0z m-2686 -56 c-6 -8
-17 -14 -23 -14 -6 0 -3 7 6 14 10 7 14 17 10 21 -4 5 -1 5 6 1 10 -6 10 -11
1 -22z m-30 -28 c9 -11 9 -16 0 -22 -8 -4 -9 -3 -5 4 4 7 2 12 -3 12 -6 0 -11
5 -11 10 0 14 5 13 19 -4z m37 -10 c0 -15 -5 -21 -10 -16 -5 5 -6 16 -3 24 9
23 15 19 13 -8z m18 -64 c2 -4 -4 -9 -15 -9 -11 -1 -17 2 -14 8 7 11 22 12 29
1z m5564 -27 c-3 -3 -9 2 -12 12 -6 14 -5 15 5 6 7 -7 10 -15 7 -18z m-5561
-1 c-3 -3 -12 -4 -19 -1 -8 3 -5 6 6 6 11 1 17 -2 13 -5z m-7 -29 c7 -9 8 -15
2 -15 -5 0 -12 7 -16 15 -3 8 -4 15 -2 15 2 0 9 -7 16 -15z m27 -40 c0 -8 -4
-12 -9 -9 -4 3 -8 9 -8 15 0 5 4 9 8 9 5 0 9 -7 9 -15z m5560 -62 c-4 -3 -2
-11 3 -18 7 -8 5 -12 -4 -12 -8 0 -12 7 -11 16 5 22 4 21 12 21 3 0 3 -3 0 -7z
m-5356 -340 l24 -28 -30 25 c-16 14 -32 26 -34 28 -2 1 0 2 6 2 5 0 20 -12 34
-27z m5387 15 c-2 -6 -10 -13 -16 -14 -7 -1 -8 0 -2 3 5 2 8 9 4 14 -3 5 0 9
6 9 7 0 10 -5 8 -12z m-5367 -71 c-10 -9 -11 -8 -5 6 3 10 9 15 12 12 3 -3 0
-11 -7 -18z m56 -75 c-8 -10 -4 -12 18 -8 15 3 25 2 21 -1 -11 -11 -45 -13
-51 -4 -3 5 -1 12 5 16 6 4 5 11 -3 19 -6 8 -14 12 -17 11 -3 -2 -6 5 -6 16 0
16 3 15 22 -9 16 -20 19 -30 11 -40z m5317 13 c-4 -8 -8 -15 -10 -15 -2 0 -4
7 -4 15 0 8 4 15 10 15 5 0 7 -7 4 -15z m-5229 -85 c-3 -5 -12 -10 -18 -10 -7
0 -6 4 3 10 19 12 23 12 15 0z m5233 -29 c-7 -9 -13 -17 -14 -19 -1 -2 -1 8 0
21 0 15 6 23 14 20 10 -4 10 -9 0 -22z m-5210 5 c-10 -7 -16 -16 -13 -20 3 -3
-1 -1 -7 4 -10 9 -10 13 2 20 23 15 37 11 18 -4z m32 -36 c0 -5 -7 -7 -15 -4
-13 5 -14 2 -5 -20 5 -14 7 -26 4 -26 -7 0 -22 44 -17 53 6 10 33 9 33 -3z
m5183 -10 c-3 -11 -9 -20 -15 -20 -5 0 -4 9 2 20 6 11 12 20 14 20 2 0 2 -9
-1 -20z m-5148 -29 c-3 -6 -11 -8 -17 -5 -7 5 -9 1 -5 -9 3 -10 2 -17 -4 -17
-6 0 -9 8 -7 18 2 9 10 16 16 15 7 -2 12 2 12 9 0 6 3 9 6 5 3 -3 3 -11 -1
-16z m39 -23 c-3 -4 -11 -5 -19 -1 -21 7 -19 12 4 10 11 0 18 -5 15 -9z m-18
-31 c1 -9 -2 -17 -8 -17 -6 0 -7 7 -4 16 5 12 2 15 -9 10 -10 -3 -13 -2 -10 5
9 14 28 6 31 -14z m61 0 c10 -13 25 -22 33 -20 13 4 13 3 0 -6 -11 -8 -18 -6
-28 7 -7 9 -20 23 -29 30 -9 6 -12 12 -6 12 7 0 20 -10 30 -23z m5072 -16 c-1
-13 -2 -13 -6 2 -2 9 -8 15 -12 13 -4 -3 -8 1 -8 9 0 11 4 12 14 4 7 -6 12
-19 12 -28z m-5094 -1 c0 -7 -8 -14 -18 -16 -9 -1 -15 2 -11 7 3 5 10 7 15 4
5 -4 9 -2 9 4 0 5 -5 12 -10 14 -6 3 -5 4 2 3 7 -2 13 -9 13 -16z m89 -26 c13
-5 13 -8 1 -20 -19 -19 -31 -18 -14 2 11 13 9 15 -17 9 -26 -5 -22 0 13 14 1
1 8 -2 17 -5z m-64 -24 c0 -5 -2 -10 -4 -10 -3 0 -8 5 -11 10 -3 6 -1 10 4 10
6 0 11 -4 11 -10z m150 -33 c13 4 13 3 0 -6 -11 -8 -19 -5 -32 12 -10 12 -18
27 -18 32 0 6 8 -2 18 -16 9 -14 24 -24 32 -22z m-120 13 c0 -5 -4 -10 -10
-10 -5 0 -10 5 -10 10 0 6 5 10 10 10 6 0 10 -4 10 -10z m65 -10 c0 -15 -41
-24 -50 -11 -3 5 0 13 6 17 7 4 9 3 5 -4 -4 -7 1 -10 14 -9 21 1 27 12 10 20
-6 3 -5 4 2 3 7 -2 13 -9 13 -16z m4965 -4 c0 -3 -4 -8 -10 -11 -5 -3 -10 -1
-10 4 0 6 5 11 10 11 6 0 10 -2 10 -4z m-4940 -31 c0 -8 -2 -15 -4 -15 -2 0
-6 7 -10 15 -3 8 -1 15 4 15 6 0 10 -7 10 -15z m37 -6 c2 -16 -1 -19 -9 -11
-5 5 -7 15 -4 21 10 15 12 14 13 -10z m4923 17 c0 -3 -4 -8 -10 -11 -5 -3 -10
-1 -10 4 0 6 5 11 10 11 6 0 10 -2 10 -4z m-4988 -20 c7 4 8 2 4 -5 -9 -13
-26 -5 -25 12 0 9 2 8 6 -1 2 -6 10 -9 15 -6z m4963 -6 c3 -5 1 -10 -4 -10 -6
0 -11 5 -11 10 0 6 2 10 4 10 3 0 8 -4 11 -10z m-4878 -22 c-2 -12 -10 -24
-18 -26 -11 -3 -12 -2 -1 6 8 5 13 12 13 16 -2 15 -1 26 4 26 3 0 3 -10 2 -22z
m4883 -12 c0 -3 -4 -8 -10 -11 -5 -3 -10 -1 -10 4 0 6 5 11 10 11 6 0 10 -2
10 -4z m-4870 -21 c-8 -10 -9 -15 -2 -15 6 0 16 8 21 18 6 9 11 12 11 6 0 -18
-26 -35 -44 -28 -15 6 -15 8 1 20 24 18 28 17 13 -1z m43 -20 c-3 -9 -8 -14
-10 -11 -3 3 -2 9 2 15 9 16 15 13 8 -4z m21 -20 c-4 -8 -10 -15 -15 -15 -4 0
-6 7 -3 15 4 8 10 15 15 15 4 0 6 -7 3 -15z m4813 -7 c-3 -8 -6 -5 -6 6 -1 11
2 17 5 13 3 -3 4 -12 1 -19z m-4857 2 c0 -5 -2 -10 -4 -10 -3 0 -8 5 -11 10
-3 6 -1 10 4 10 6 0 11 -4 11 -10z m90 0 c0 -5 -2 -10 -4 -10 -3 0 -8 5 -11
10 -3 6 -1 10 4 10 6 0 11 -4 11 -10z m4769 -49 c-1 -13 -2 -13 -6 2 -2 9 -9
17 -14 17 -5 0 -9 5 -9 11 0 8 5 8 15 -1 8 -7 14 -20 14 -29z m-4749 8 c12 -8
9 -9 -10 -4 -24 6 -24 5 -6 -9 16 -13 17 -16 4 -16 -17 0 -31 24 -21 34 9 8
16 7 33 -5z m62 -33 c3 3 9 0 14 -7 5 -8 3 -10 -6 -4 -10 6 -12 3 -7 -11 5
-14 2 -12 -13 6 -17 21 -21 23 -30 10 -11 -17 -13 -10 -4 15 6 14 8 14 24 0 9
-8 19 -12 22 -9z m34 -35 c-9 -14 26 -23 36 -9 7 10 8 9 5 -2 -2 -8 3 -24 12
-34 16 -19 15 -19 -10 -3 -14 10 -29 14 -34 10 -4 -5 -5 -3 -2 3 4 7 0 14 -8
18 -17 6 -20 26 -4 26 5 0 8 -4 5 -9z m2229 -11 c-3 -5 -12 -10 -18 -10 -7 0
-6 4 3 10 19 12 23 12 15 0z m2400 -20 c-2 -16 1 -30 6 -30 5 0 9 -5 9 -11 0
-8 -4 -8 -14 0 -13 11 -15 71 -1 71 2 0 2 -13 0 -30z m-2592 13 c3 -5 -5 -8
-18 -8 -13 0 -21 3 -18 8 2 4 10 7 18 7 8 0 16 -3 18 -7z m-1956 -17 c-1 -6 4
-10 11 -8 8 1 11 -2 7 -8 -9 -15 -19 -12 -32 8 -9 15 -8 19 2 19 8 0 13 -5 12
-11z m1900 8 c-3 -3 -12 -4 -19 -1 -8 3 -5 6 6 6 11 1 17 -2 13 -5z m127 -6
c-3 -4 -9 -8 -15 -8 -5 0 -9 4 -9 8 0 5 7 9 15 9 8 0 12 -4 9 -9z m-1989 -28
c-10 -11 -22 -20 -28 -20 -5 0 1 9 14 20 31 25 37 25 14 0z m3376 -33 c-10 -9
-11 -8 -5 6 3 10 9 15 12 12 3 -3 0 -11 -7 -18z m-3115 -19 c3 -4 -1 -5 -10
-4 -8 1 -18 5 -22 8 -3 4 1 5 10 4 8 -1 18 -5 22 -8z m3179 -7 c3 -5 1 -12 -5
-16 -5 -3 -10 1 -10 9 0 18 6 21 15 7z m-3115 -5 c0 -2 -7 -7 -16 -10 -8 -3
-12 -2 -9 4 6 10 25 14 25 6z m4190 -45 c0 -4 -6 -8 -13 -8 -8 0 -14 6 -14 13
0 7 6 10 14 7 7 -3 13 -8 13 -12z m-516 -100 c11 -12 14 -21 7 -26 -6 -3 -11
-11 -11 -18 0 -8 3 -8 12 1 7 7 16 12 22 12 5 0 1 -7 -10 -15 -18 -13 -17 -14
14 -10 35 4 44 -10 12 -20 -11 -4 -18 -11 -15 -16 4 -5 14 -5 26 2 12 6 23 8
27 5 3 -3 0 -6 -6 -6 -7 0 -12 -5 -12 -11 0 -6 10 -8 23 -5 12 3 16 3 9 0 -10
-5 -9 -9 3 -18 15 -10 14 -12 -4 -12 -11 0 -17 5 -14 10 4 5 -1 7 -9 3 -9 -3
-24 3 -34 14 -19 21 -40 26 -28 7 5 -7 3 -8 -6 -3 -10 6 -10 11 4 20 14 11 13
14 -16 28 -18 9 -27 17 -20 17 14 0 12 21 -3 32 -6 5 -4 8 5 8 13 0 13 1 0 10
-8 5 -10 10 -4 10 6 0 19 -9 28 -19z m-90 -48 c9 4 18 2 21 -4 4 -5 10 -7 15
-4 5 3 11 1 15 -5 4 -6 10 -8 15 -5 13 8 20 -9 10 -24 -6 -11 -11 -9 -20 8 -9
18 -14 20 -26 10 -8 -7 -14 -8 -13 -3 3 20 -2 28 -10 15 -7 -11 -12 -10 -27 5
-11 11 -28 18 -39 17 -20 -3 -20 -3 0 6 14 6 23 5 32 -6 7 -9 19 -13 27 -10z
m233 -88 c0 -8 -4 -15 -9 -15 -10 0 -11 14 -1 23 9 10 10 9 10 -8z"/>
<path d="M6133 915 c0 -8 4 -12 9 -9 5 3 6 10 3 15 -9 13 -12 11 -12 -6z"/>
<path d="M4819 5692 c28 -20 51 -24 51 -10 0 6 -7 8 -15 4 -8 -3 -15 -2 -15 3
0 5 -10 11 -22 14 -23 6 -23 5 1 -11z"/>
<path d="M3300 5624 c0 -8 5 -12 10 -9 6 4 8 11 5 16 -9 14 -15 11 -15 -7z"/>
<path d="M3140 5619 c0 -5 5 -7 10 -4 6 3 10 8 10 11 0 2 -4 4 -10 4 -5 0 -10
-5 -10 -11z"/>
<path d="M86 5065 c4 -8 10 -15 15 -15 4 0 6 -7 3 -15 -4 -8 -1 -21 5 -29 6
-7 8 -16 4 -19 -3 -4 -1 -7 5 -7 14 0 16 13 5 24 -5 4 -8 15 -9 24 -1 24 -15
52 -25 52 -4 0 -6 -7 -3 -15z"/>
<path d="M5980 4710 c6 -11 12 -20 14 -20 2 0 2 9 -1 20 -3 11 -9 20 -15 20
-5 0 -4 -9 2 -20z"/>
<path d="M556 4075 c4 -8 11 -15 16 -15 6 0 5 6 -2 15 -7 8 -14 15 -16 15 -2
0 -1 -7 2 -15z"/>
<path d="M757 3849 c-18 -11 -14 -29 6 -29 7 0 13 9 14 20 1 11 1 20 0 20 -1
0 -10 -5 -20 -11z"/>
<path d="M790 3790 c0 -5 4 -10 9 -10 5 0 13 -9 16 -20 8 -26 30 -26 32 1 2
17 -1 18 -13 9 -14 -12 -19 -4 -15 23 0 4 -6 7 -14 7 -8 0 -15 -4 -15 -10z"/>
<path d="M880 3733 c0 -3 8 -15 18 -26 9 -11 12 -17 5 -14 -6 4 -14 3 -18 -3
-4 -6 4 -9 19 -8 32 3 32 9 1 36 -14 12 -25 19 -25 15z"/>
<path d="M923 3598 c0 -13 -4 -31 -8 -42 -6 -14 -5 -17 6 -14 8 3 13 13 11 23
-2 9 1 15 6 11 5 -3 8 5 7 16 -2 30 -21 34 -22 6z"/>
<path d="M870 3150 c0 -5 5 -10 10 -10 6 0 10 5 10 10 0 6 -4 10 -10 10 -5 0
-10 -4 -10 -10z"/>
<path d="M877 3033 c-10 -9 -9 -53 1 -53 4 0 8 14 8 30 2 32 1 34 -9 23z"/>
<path d="M915 2869 c-4 -6 -13 -8 -21 -5 -26 10 -23 -11 4 -23 15 -7 24 -10
20 -6 -4 4 -3 16 3 26 10 20 5 27 -6 8z"/>
<path d="M938 2698 c14 -15 25 -19 32 -12 6 6 -1 14 -22 22 l-32 12 22 -22z"/>
<path d="M6657 2026 c-3 -8 -4 -22 -2 -32 2 -11 4 -22 4 -26 1 -5 6 -8 12 -8
8 0 8 4 2 13 -5 6 -8 24 -7 40 3 29 -1 35 -9 13z"/>
<path d="M6675 1600 c-3 -6 1 -7 9 -4 18 7 21 14 7 14 -6 0 -13 -4 -16 -10z"/>
<path d="M5196 1287 c5 -14 2 -16 -12 -11 -16 5 -16 4 -4 -5 20 -14 39 4 21
22 -10 10 -11 9 -5 -6z"/>
<path d="M5225 1270 c3 -6 1 -10 -6 -10 -7 0 -10 -3 -6 -6 3 -3 13 -2 22 4 16
8 16 9 1 15 -10 4 -15 3 -11 -3z"/>
<path d="M5316 1203 c-6 -14 -5 -15 5 -6 7 7 10 15 7 18 -3 3 -9 -2 -12 -12z"/>
<path d="M5390 1171 c0 -5 7 -15 17 -22 15 -13 15 -12 4 9 -12 23 -21 28 -21
13z"/>
</g>
</svg>
