<?xml version="1.0" encoding="iso-8859-1"?>
<!-- Generator: Adobe Illustrator 26.0.1, SVG Export Plug-In . SVG Version: 6.00 Build 0)  -->
<svg version="1.1" id="Layer_1" xmlns="http://www.w3.org/2000/svg" xmlns:xlink="http://www.w3.org/1999/xlink" x="0px" y="0px"
	 viewBox="0 0 500 500" style="enable-background:new 0 0 500 500;" xml:space="preserve">
<g>
	<path style="fill-rule:evenodd;clip-rule:evenodd;fill:currentColor;" d="M402.417,93.653c4.163-24.131,10.272-39.306,17.039-39.335
		h0.015c12.619,0.044,22.848,52.669,22.848,117.643c0,64.973-10.244,117.642-22.877,117.642c-5.179,0-9.957-8.943-13.806-23.929
		c-6.081,54.857-18.699,92.569-33.307,92.569c-11.303,0-21.446-22.653-28.256-58.379c-4.65,67.945-16.353,116.149-30.031,116.149
		c-8.584,0-16.41-19.102-22.204-50.204c-6.968,64.205-23.063,109.192-41.834,109.192c-18.771,0-34.894-44.973-41.833-109.192
		c-5.752,31.103-13.577,50.204-22.205,50.204c-13.677,0-25.352-48.205-30.03-116.149c-6.81,35.726-16.925,58.379-28.256,58.379
		c-14.593,0-27.226-37.697-33.306-92.569c-3.82,15.03-8.627,23.929-13.806,23.929c-12.633,0-22.877-52.669-22.877-117.642
		c0-64.974,10.244-117.643,22.877-117.643c6.782,0,12.848,15.218,17.054,39.335c6.739-41.61,17.684-68.655,30.059-68.655
		c14.694,0,27.427,38.248,33.45,93.786c5.894-40.422,14.836-66.191,24.851-66.191c14.034,0,25.967,50.683,30.388,121.382
		c8.312-36.249,20.344-58.988,33.664-58.988c13.32,0,25.352,22.755,33.65,58.988c4.435-70.699,16.353-121.382,30.388-121.382
		c10,0,18.928,25.769,24.851,66.191c6.008-55.538,18.742-93.786,33.435-93.786C384.691,24.999,395.679,52.058,402.417,93.653z
		 M25,160.39c0-29.045,5.809-52.597,12.976-52.597s12.976,23.552,12.976,52.597c0,29.044-5.809,52.596-12.976,52.596
		S25,189.434,25,160.39z M449.047,160.39c0-29.045,5.808-52.597,12.976-52.597S475,131.346,475,160.39
		c0,29.044-5.809,52.596-12.977,52.596S449.047,189.434,449.047,160.39z"/>
</g>
</svg>
