<svg viewBox="0 0 83 20" fill="none" xmlns="http://www.w3.org/2000/svg">
<path d="M4.3 4.3V8.2H8.8V11.9H4.3V19.5H0V0.5H9.2V4.4H4.3V4.3ZM19 19.4L18.2 15.9H13.9L13.1 19.4H8.8L13.4 0.400002H18.8L23.4 19.4H19ZM16.2 4.5H16.1L14.5 12.6H17.7L16.2 4.5ZM33.2 19.4L28.8 7.8H28.7L28.8 19.4H25V0.400002H29.7L34.1 12.1H34.2L34.1 0.400002H37.8V19.4H33.2ZM52 16.5C51.7 17.2 51.2 17.7 50.7 18.2C50.2 18.7 49.6 18.9 48.9 19.1C48.2 19.3 47.6 19.4 46.9 19.4H40.6V0.400002H46.3C46.9 0.400002 47.5 0.500002 48.2 0.600002C48.9 0.700002 49.5 1 50 1.3C50.5 1.6 51 2.1 51.4 2.8C51.8 3.4 51.9 4.3 51.9 5.3C51.9 6.4 51.7 7.3 51.2 8C50.7 8.7 50.2 9.2 49.5 9.5C49.9 9.6 50.2 9.8 50.6 10C51 10.2 51.3 10.5 51.6 10.9C51.9 11.3 52.1 11.7 52.3 12.2C52.5 12.7 52.6 13.3 52.6 14C52.5 15 52.3 15.8 52 16.5ZM47.5 4.4C47.1 4.1 46.6 3.9 46.1 3.9H44.6V8H46.1C46.6 8 47.1 7.8 47.5 7.5C47.9 7.2 48.1 6.6 48.1 5.9C48.1 5.3 47.9 4.7 47.5 4.4ZM48.2 12.5C48.1 12.2 47.9 12 47.7 11.8C47.5 11.6 47.2 11.5 46.9 11.4C46.6 11.3 46.4 11.3 46.1 11.3H44.6V15.9H46.2C46.8 15.9 47.4 15.7 47.8 15.3C48.2 14.9 48.5 14.4 48.5 13.6C48.4 13.1 48.4 12.8 48.2 12.5ZM67.9 14C67.6 15.2 67.1 16.3 66.5 17.2C65.9 18.1 65.1 18.8 64.2 19.2C63.3 19.6 62.3 19.9 61.2 19.9C60.1 19.9 59.1 19.7 58.2 19.2C57.3 18.7 56.5 18 55.9 17.2C55.3 16.3 54.8 15.3 54.5 14C53.8327 11.3074 53.8327 8.49261 54.5 5.8C54.8 4.6 55.3 3.5 55.9 2.7C56.5 1.8 57.3 1.2 58.2 0.700001C59.1 0.200001 60.1 0 61.3 0C62.4 0 63.4 0.200001 64.3 0.700001C65.2 1.2 66 1.8 66.6 2.7C67.2 3.6 67.7 4.6 68 5.8C68.3 7 68.5 8.4 68.5 9.9C68.5 11.4 68.2 12.7 67.9 14ZM63.8 7.6C63.7 6.9 63.5 6.3 63.3 5.8C63.1 5.3 62.8 4.9 62.4 4.6C62 4.3 61.6 4.2 61.1 4.2C60.6 4.2 60.2 4.3 59.8 4.6C59.4 4.9 59.1 5.3 58.9 5.8C58.7 6.3 58.5 6.9 58.4 7.6C58.3 8.3 58.2 9.1 58.2 9.9C58.2 10.7 58.3 11.5 58.4 12.2C58.5 12.9 58.7 13.5 58.9 14C59.1 14.5 59.4 14.9 59.8 15.2C60.2 15.5 60.6 15.7 61.1 15.7C61.6 15.7 62 15.5 62.4 15.2C62.8 14.9 63.1 14.5 63.3 14C63.5 13.5 63.7 12.9 63.8 12.2C63.9 11.5 64 10.7 64 9.9C64 9.1 63.9 8.3 63.8 7.6ZM78.1 19.4L75.5 13.1L72.9 19.4H68.4L73.1 9.5L68.8 0.5H73.3L75.6 6.3L78 0.5H82.4L78.1 9.5L82.8 19.5H78.1V19.4Z" fill="currentColor"/>
</svg>
