<svg xmlns="http://www.w3.org/2000/svg" viewBox="0 0 113 113"><path fill="currentColor" fill-rule="evenodd" d="M52 1.891C48.505 3.02 41.241 6.8 40.612 7.819c-.288.466 6.881.848 15.932.848S73 8.365 73 7.997c0-.369-2.362-1.854-5.25-3.302C61.898 1.762 55.777.672 52 1.891m-2 9.806c-2.631.945-11 6.482-11 7.277 0 .796 5.277 1.725 15.404 2.713C59.732 22.206 74 20.396 74 19.2c0-.932-3.562-3.339-8.5-5.745-4.759-2.318-11.739-3.11-15.5-1.758m-18.713 2.39C27.654 15.885 21 23.602 21 26.017c0 1.483 11.423-5.212 16.163-9.474L42.216 12l-3.358.001c-1.847 0-5.254.939-7.571 2.086m44.217 2.163C80.097 20.329 90 25.708 90 24.123c0-.419-1.66-2.703-3.689-5.073-3.893-4.547-8.479-7.05-12.92-7.05-2.566 0-2.481.17 2.113 4.25M89 16.878c0 .482.605 1.38 1.346 1.994.74.614 2.178 3.032 3.195 5.372 1.018 2.341 2.707 5.512 3.752 7.047 1.046 1.536 2.203 3.786 2.57 5 1.023 3.382 6.525 12.678 7.512 12.695.482.008.68-3.709.442-8.26-.564-10.744-3.052-15.382-11.151-20.79C90.713 15.96 89 15.277 89 16.878m-73.5 3.885C8.804 25.788 6 31.43 6 39.878v6.454l4.16-5.916c2.288-3.254 5.207-8.573 6.486-11.821 1.28-3.247 3.008-6.944 3.84-8.214 3.042-4.643 1.558-4.53-4.986.382M34 23.935C16.741 29.204 10.847 42.551 18.626 58.75c1.387 2.888 2.845 5.25 3.24 5.25.396 0 1.289-2.129 1.985-4.732 1.43-5.346 5.271-10.911 8.568-12.413 1.666-.759 2.518-2.486 3.448-6.988 1.024-4.961 2.047-6.822 6.008-10.932 2.626-2.724 4.553-5.174 4.283-5.444-.739-.739-9.307-.426-12.158.444m34.737-.154c-1.54.659-1.3 1.191 1.898 4.207 4.15 3.915 7.311 10.12 7.343 14.416.016 2.139 1.083 3.812 4.048 6.35 4.548 3.893 6.487 7.133 7.5 12.531.383 2.043 1.025 3.715 1.426 3.715 1.826 0 6.283-10.503 6.779-15.972.753-8.299-.331-12.58-4.296-16.968-5.478-6.064-19.159-10.65-24.698-8.279m-19.933 3.26c-4.203 2.219-7.997 6.874-9.666 11.858C37.464 43.9 37.544 44 43.191 44c4.779 0 5.037.117 3.25 1.468-1.067.808-3.227 1.483-4.798 1.5-2.312.026-2.725.366-2.165 1.782 1.067 2.698 1.857 8.25 1.173 8.25-.336 0-1.529-1.8-2.651-4-1.122-2.2-2.428-4-2.902-4-1.709 0-7.078 6.41-8.19 9.779-.625 1.895-.928 5.961-.673 9.035.416 5.027.874 5.955 4.539 9.207 6.991 6.204 16.801 7.75 22.017 3.47.159-.132-.684-1.89-1.874-3.908-1.191-2.017-1.949-3.885-1.684-4.149.948-.949 3.51.718 4.795 3.119 1.64 3.064 2.515 3.074 4.496.051.863-1.317 2.44-2.623 3.505-2.901 1.697-.444 1.799-.24.825 1.645-.611 1.184-1.808 2.95-2.659 3.926-2.309 2.645-.262 4.021 6.734 4.527 7.132.516 13.793-2.197 17.223-7.015 4.733-6.647 3.012-18.946-3.406-24.347l-3.111-2.617-1.901 3.705c-1.371 2.673-2.205 3.402-2.99 2.617-.786-.786-.759-1.815.096-3.692 1.443-3.168.787-4.452-2.277-4.452-1.275 0-2.936-.746-3.691-1.657-1.253-1.513-.959-1.61 3.378-1.123 4.504.507 4.75.409 4.75-1.883 0-3.114-3.149-9.241-6.153-11.97-6.107-5.55-13.507-6.778-20.043-3.326M9.5 47.5c-2.335 5.21-2.983 12.23-1.478 16l1.198 3 1.903-6.811c1.465-5.242 1.703-7.89 1.036-11.5l-.867-4.689-1.792 4m42.52-.512c-1.242.767-1.196 1.007.301 1.582 2.087.8 3.449-.2 2.104-1.545-.568-.568-1.522-.583-2.405-.037m6.98.543c0 .808.675 1.469 1.5 1.469s1.5-.402 1.5-.893-.675-1.152-1.5-1.469c-.914-.35-1.5-.001-1.5.893m41.628 4.168c-.71 5.178.185 14.301 1.403 14.301 1.102 0 2.969-5.772 2.969-9.181 0-2.705-2.401-9.819-3.313-9.819-.228 0-.705 2.114-1.059 4.699m-35.92-1.074c-.78.78.295 3.375 1.399 3.375 1.143 0 1.168-2.712.032-3.414-.473-.292-1.117-.275-1.431.039m-18.041 1.042C45.516 52.817 45.938 54 47.5 54c.825 0 1.5-.675 1.5-1.5 0-1.562-1.183-1.984-2.333-.833m-1.438 7.521c.618 1.854 2.771 2.161 2.771.395 0-.871-.712-1.583-1.583-1.583s-1.406.534-1.188 1.188M66 59.5c0 .825.402 1.5.893 1.5s1.152-.675 1.469-1.5c.35-.914.001-1.5-.893-1.5-.808 0-1.469.675-1.469 1.5m-52.32 1.558c-1.107 4.14-.749 12.84.667 16.224 1.626 3.884 8.61 10.384 13.231 12.315 4.961 2.073 5.675 1.793 3.948-1.547C30.687 86.427 30 84.491 30 83.747c0-.744-1.293-3.129-2.874-5.3-1.58-2.171-3.216-5.072-3.635-6.447-.418-1.375-1.938-3.861-3.376-5.524-1.438-1.663-3.327-4.111-4.198-5.441l-1.583-2.418-.654 2.441m79.57 5.975c-2.338 2.631-4.252 5.162-4.254 5.625-.002.463-.989 2.417-2.193 4.342-2.468 3.946-5.91 13.226-5.177 13.959.934.934 9.481-4.317 12.354-7.589 3.207-3.652 5.044-8.991 4.944-14.37-.127-6.872-1.036-7.187-5.674-1.967m-44.707-2.102c-.74 1.197 1.141 2.382 2.473 1.559C52.135 65.799 51.4 64 50 64c-.485 0-1.141.419-1.457.931m13.916.136c-.917 1.483-.055 2.099 1.892 1.352.901-.346 1.389-1.031 1.084-1.524-.748-1.211-2.172-1.129-2.976.172M103.871 70c-1.446 2.475-2.932 5.907-3.302 7.627-.371 1.719-1.81 4.644-3.199 6.5-3.261 4.356-6.656 10.92-5.992 11.584.86.86 7.284-3.562 10.507-7.233 3.871-4.409 5.336-9.448 4.935-16.978l-.32-6-2.629 4.5M5 72.332C5 78.275 6.831 84.02 9.788 87.36 11.949 89.8 19.015 95 20.17 95c1.118 0-2.486-7.073-6.254-12.274C12.312 80.512 11 78.198 11 77.585c0-1.254-3.722-8.574-5.102-10.035C5.361 66.982 5 68.907 5 72.332M55 68c0 .55.927 1 2.059 1 1.132 0 1.781-.45 1.441-1-.34-.55-1.266-1-2.059-1-.793 0-1.441.45-1.441 1M33 83.433c0 .356.881 2.374 1.958 4.485 2.45 4.802 10.082 11.61 14.738 13.147 5.561 1.835 13.498.719 19.01-2.673C75.03 94.5 83.449 82.287 78.25 84.547c-.963.418-4.719.963-8.348 1.211-4.956.338-7.422.024-9.91-1.262-3.139-1.623-3.588-1.618-8.634.097-5.279 1.794-10.829 1.443-16.608-1.052-.962-.415-1.75-.464-1.75-.108M23 91.54c0 1.385 4.782 6.78 7.496 8.458 3.257 2.013 13.529 3.829 13.465 2.381-.076-1.712-8.528-7.033-13.237-8.334-2.626-.726-5.015-1.708-5.309-2.182-.584-.945-2.415-1.189-2.415-.323m58.873 2.789c-5.406 2.086-12.654 7.224-11.632 8.245.922.923 8.603-.801 11.547-2.591 2.909-1.769 8.103-8.056 6.53-7.904-.45.043-3.35 1.056-6.445 2.25M44.5 105.964l-3 .728 5 2.342c6.583 3.085 13.427 3.082 20-.007l5-2.35-4.5-.764c-5.594-.951-18.49-.921-22.5.051"/></svg>