<svg xmlns="http://www.w3.org/2000/svg" style="shape-rendering:geometricPrecision;text-rendering:geometricPrecision;image-rendering:optimizeQuality;fill-rule:evenodd;clip-rule:evenodd" viewBox="0 0 1000 1000"><path fill="currentColor" d="M637.5 54.5c23.3-1.7 46 1.1 68 8.5a115.7 115.7 0 0 1 67.5 87.5c2.5 14 4.1 28 5 42 .5 64.9.6 128.9.5 192a4.3 4.3 0 0 1-3 2.5c-86 20.4-171.3 43.7-256 70-14-39-26.1-78.4-36.5-118.5-.7-4-.7-8 0-12a57.1 57.1 0 0 1 9-15 1496 1496 0 0 1 91-93c10.4-11 20-22.8 29-35 23.2-34.5 15.7-59.7-22.5-75.5-31.7-7.4-63.3-6-95 4-25.2 7.6-49.2 18-72 31-1.3.7-2.7.7-4 0a179.7 179.7 0 0 1 57-43 452.9 452.9 0 0 1 162-45.5Z" style="opacity:.989"/><path fill="currentColor" d="M367.5 236.5c15.4-2 29.7.7 43 8.5 11.6 9 14.1 20.2 7.5 33.5-32 57.8-64.4 115.5-97 173l-33 54a514.9 514.9 0 0 0-20 23 634.5 634.5 0 0 1-32.5 27.5 76 76 0 0 0-26.5 75.5c1.8 11.3 4.8 22.3 9 33a806 806 0 0 0 29 59 31.8 31.8 0 0 0 19 9c8.7-1.3 17.2-3.5 25.5-6.5a823.8 823.8 0 0 0 147-80c.7-.7 1.3-.7 2 0 3 3.3 5.2 7.1 6.5 11.5 1.5 8.8 2.3 17.6 2.5 26.5-.6 18.5-1.8 37-3.5 55.5a83.3 83.3 0 0 1-17.5 45.5c-29.7 17.5-59 35.5-88 54a399 399 0 0 1-87 41c-64 16.8-108.1-5.4-132.5-66.5a254.6 254.6 0 0 1-11-99 941.5 941.5 0 0 1 112-365c9.8-17 20.2-33.7 31-50a150.7 150.7 0 0 1 69.5-50.5c14.7-5.6 29.7-9.8 45-12.5Z" style="opacity:.99"/><path fill="currentColor" d="M521.5 262.5c1.4 1.6 1 3-1 4l-1-1 2-3Z" style="opacity:.032"/><path fill="currentColor" d="M428.5 391.5c2.6 0 4 1.4 4.5 4a782.7 782.7 0 0 1 25 92c-36 25.7-71.8 51.5-107.5 77.5-14.9 8.5-23.9 4.5-27-12 .3-6 2-11.5 5.5-16.5l44-68c19-25.4 37.5-51 55.5-77Z" style="opacity:.975"/><path fill="currentColor" d="M774.5 421.5h4c-.5 101.7-1.1 203.7-2 306-9.1-1-18.1-2.9-27-5.5a374.9 374.9 0 0 0-86-24c-33.1-.5-66.1 1.1-99 5-10 .8-20 .7-30-.5a40 40 0 0 1-5.5-14 193 193 0 0 1-1-66c2.8-13 5.8-26 9-39a54 54 0 0 1 14.5-24.5 911.9 911.9 0 0 1 223-137.5Z" style="opacity:.99"/><path fill="currentColor" d="M569.5 719.5c35.2-.3 64.7 12.3 88.5 38a114.8 114.8 0 0 1 12 112c-24.5 56-67.3 86-128.5 90l-13-1.5a39.1 39.1 0 0 1-2.5-10.5c-.6-7.2-1.1-14.3-1.5-21.5l4.5-62.5c.6-35.7.3-71.4-1-107a41.2 41.2 0 0 1 23.5-31.5c6-2.5 12-4.3 18-5.5Z" style="opacity:.987"/><path fill="currentColor" d="M432.5 828.5c2.8.3 4.3 2 4.5 5 1 12.2 0 24.2-3 36-5.5 16.5-16.7 22-33.5 16.5-13.8-2.8-16.7-10-8.5-21.5a229.8 229.8 0 0 1 40.5-36Z" style="opacity:.947"/><path fill="currentColor" d="M369.5 903.5c4.4-.3 8.8.2 13 1.5a95.7 95.7 0 0 1 43.5 38.5c3.2 6.4 1.4 10.6-5.5 12.5-26.1 1.4-52.1 4-78 7.5 2.4-17 7.9-33 16.5-48 2.6-4.8 6.1-8.8 10.5-12Z" style="opacity:.961"/></svg>